<?xml version="1.0" encoding="UTF-8"?>
<svg id="_图层_1" data-name="图层 1" xmlns="http://www.w3.org/2000/svg" xmlns:xlink="http://www.w3.org/1999/xlink" viewBox="0 0 1024 1024">
  <defs>
    <style>
      .cls-1 {
        fill: url(#_未命名的渐变_2);
      }

      .cls-2 {
        fill: url(#_未命名的渐变_3);
      }

      .cls-3 {
        fill: #3a5066;
      }

      .cls-4 {
        fill: #f3823e;
      }

      .cls-5 {
        fill: url(#_未命名的渐变);
      }

      .cls-6 {
        fill: #f28442;
      }

      .cls-7 {
        fill: #ebdeb7;
      }

      .cls-8 {
        fill: #db5833;
      }

      .cls-9 {
        fill: #b54630;
      }

      .cls-10 {
        fill: #f8f5d7;
      }

      .cls-11 {
        fill: #24374a;
      }
    </style>
    <linearGradient id="_未命名的渐变" data-name="未命名的渐变" x1="1699.3" y1="6" x2="1660.56" y2="78.56" gradientTransform="translate(-223.5 499.5) scale(.5 -.5)" gradientUnits="userSpaceOnUse">
      <stop offset="0" stop-color="#e1ae89"/>
      <stop offset="1" stop-color="#ecdab6"/>
    </linearGradient>
    <linearGradient id="_未命名的渐变_2" data-name="未命名的渐变 2" x1="1255.83" y1="2.64" x2="1298.04" y2="77.6" gradientTransform="translate(-223.5 499.5) scale(.5 -.5)" gradientUnits="userSpaceOnUse">
      <stop offset="0" stop-color="#e4b592"/>
      <stop offset="1" stop-color="#ebddb9"/>
    </linearGradient>
    <linearGradient id="_未命名的渐变_3" data-name="未命名的渐变 3" x1="1176.61" y1="-553.92" x2="1154.71" y2="-441.42" gradientTransform="translate(-223.5 499.5) scale(.5 -.5)" gradientUnits="userSpaceOnUse">
      <stop offset="0" stop-color="#e2ab89"/>
      <stop offset="1" stop-color="#ebdebb"/>
    </linearGradient>
  </defs>
  <path class="cls-6" d="M580.39,103.98c9.22-.84,24.69.12,34.48.08,12.28-.05,24.59-.22,36.85-.24l55.51-.05c22.99-.02,45.15-.97,67.79,3.35,7.21,1.38,18.53,2.62,25.16,5.35,18.01,7.95,38.22,17.67,53.9,29.67,35.82,27.41,57.53,71.08,65.08,114.88,2.42,14.05,1.17,34.45,1.18,48.99l.03,89.21.51,295.75-.25,49.28c-.02,9.78.53,21.75-.52,31.23-8.21,73.5-66.27,133.34-138.69,146.19-15.62,2.78-28.21,1.92-43.97,2.02l-58.02.44-231.31.22-116.03-.11c-17.55.02-35.09-.09-52.64-.34-3.4-.03-6.95-.16-10.31-.1-48.22.92-96.59-22.03-127.28-59.22-20.97-25.41-37.04-60.44-37.92-94-.31-12.02-.36-24.37-.4-36.58l-.05-63.97-.1-184.75-.08-129.85c-.04-34.33-1.32-79.82,5.25-113.24,5.6-27.91,18.76-53.75,38.03-74.7,39.46-43.38,85.81-60.9,143.4-59.31,4.51.12,9.35-.07,13.9-.08l49.95-.03h150.05s46.03,0,46.03,0c9.92.03,20.62.3,30.49-.12h0Z"/>
  <g>
    <path class="cls-11" d="M677.07,202.92c.74.11.72.21,1.43.6,8.19,15.95,15.38,43.51,17.33,61.45.59,5.42.11,16.46.27,22.47-.27,5.69.57,12.2-.05,17.81-1.62,14.88-4.51,29.95-8.08,44.47-1.43,5.79-4.04,10.79-4.88,16.84,7.28,8.62,12.9,19.75,18.24,29.67,8.65,16.07,13.55,34.11,17.84,51.74,1.97,8.11,1.88,17,4.99,24.72-17.22.24-65.78,4.57-78.97,15.3,4.02,6.87,18.16,19.88,24.19,26.83,6.16,7.1,12.96,13.07,19.15,21.09,15.33,20.09,25.97,43.36,31.13,68.1,2.13,9.99,2.2,13.88,2.53,23.72,1.23,36.21-3.27,65.78-19.98,97.91-35.35,67.93-109.66,97.12-183.37,88.79-58.88-6.48-102.44-56.69-162.83-51.26-25.78,2.32-50.82,17.57-70.27,34.07-5.72,4.8-12.18,9.48-17.07,15.06-.43-10.91-1.26-39.29,1.75-49.3.42-15.26,12.81-45.6,20.27-58.53,25.06-43.45,70.35-72.16,119.92-78.17,10.78-1.31,21.12-.29,31.89-1.11-4.96-11.19-10.61-24.58-11.9-36.85-.58-5.7,0-12.4-.25-18.02-.87-17.66,3.43-33.48,9.41-49.8.71-3.78-6.45-7.82-8.82-9.53-26.44-19.1-59.81-30.6-91.94-34.98-11.09-1.51-21.38-1.58-32.12-3.06,4.94-43.56,18.94-70.61,41.43-106.74-2.68-8.09-5.2-16.24-7.56-24.43-5.75-20.34-5.97-48.24-5.23-69.36.74-20.99,8.48-50.73,18.62-68.88,33.4,10.33,59.96,27.11,82.37,54.22,3.57,4.4,6.99,8.92,10.26,13.56,2.65,3.78,5.15,7.96,8.37,11.25,21.7-7.82,39.93-9.16,62.63-8.56,13.46.36,24.14-.12,37.57,3.35,6.77,1.75,14.27,3.73,21.11,4.97,1.67.3,9.78-12.61,11.1-14.19,6.31-8.35,12.56-16.31,20.04-23.64,20.59-20.16,42.63-31.92,69.49-41.57Z"/>
    <path class="cls-4" d="M366.76,226.51c37.83,15.12,60.6,42.9,79.87,77.43,51.47-19.1,87.03-17.62,138.39.32,16.04-29.55,32.71-49.94,61.85-67.98,5.02-3.11,12.61-7.5,17.96-9.56-5.73,7.88-11.79,15.58-17.39,23.5-14.7,20.82-25.43,41.73-35.18,65.22,4.4,4.38,8.9,8.11,13.71,12.03,8.61-19.04,15.82-36.62,27.41-54.35,6.38-9.74,13.4-18.5,20.34-27.82,9.19,24.88,6.66,71.58-1.23,96.89-2.63,8.44-8.42,19.73-10.4,26.85,1.86,1.52,3.33,3.32,4.86,5.16,15.64,18.88,26.36,42.3,32.92,65.78,1.72,5.55,3.04,11.21,3.97,16.94-41.24,4.24-82.29,16.18-116.4,40.48-6.7,4.79-13.11,9.96-19.22,15.46-6.69,6.04-16.93,16.42-23.53,23.16-.29.02-.59.04-.88.07l-.74-.61c-2.6-3.7-6.18-7.02-9.62-9.94-2.65,8.97-10.88,26.91-17.24,33.16l-.41.41c-8.42-3.83-22.61-15.17-27.68-22.48-4.66-5.34-10.8-10.74-15.9-15.67-33.62-32.5-77.24-54.11-123.46-61.18-6.83-1.05-13.74-1.67-20.59-2.71.36-5.56,2.36-12.08,3.87-17.52,7.47-23,17.39-45.9,32.75-64.82,1.6-1.97,3.19-3.98,5.14-5.62-18.69-43.76-22.1-76.84-12.3-123.72,21.06,23.87,36.68,52.81,47.98,82.47,4.48-3.67,9.83-7.84,13.97-11.78-14.68-37.92-28.99-57.57-52.83-89.54Z"/>
    <path class="cls-10" d="M662.08,369.05c1.86,1.52,3.33,3.32,4.86,5.16,15.64,18.88,26.36,42.3,32.92,65.78,1.72,5.55,3.04,11.21,3.97,16.94-41.24,4.24-82.29,16.18-116.4,40.48-6.7,4.79-13.11,9.96-19.22,15.46-6.69,6.04-16.93,16.42-23.53,23.16-.29.02-.59.04-.88.07l-.74-.61c-.18-3.79-.18-7.82.38-11.57.08-12.96.07-25.92-.05-38.88-.26-28.76-1.47-60.84,17.42-84.65,18.92-24.07,48.97-30.77,78.12-31.3,5.91-.11,17.91.76,23.14-.04Z"/>
    <path class="cls-5" d="M699.87,439.99c1.72,5.55,3.04,11.21,3.97,16.94-41.24,4.24-82.29,16.18-116.4,40.48-6.7,4.79-13.11,9.96-19.22,15.46-6.69,6.04-16.93,16.42-23.53,23.16-.29.02-.59.04-.88.07l-.74-.61c-.18-3.79-.18-7.82.38-11.57l.24,7.77c19.03-47.4,67.45-85.21,118.53-90.51,8.2-.8,16.42-1.17,24.66-1.13,3.02,0,10.55.48,12.98-.04Z"/>
    <path class="cls-11" d="M611.54,404.79c2.02-.22,4.48-.32,6.55-.46-2.7,15.14-10.23,26.23-25.53,30.39-10.67,2.9-16.45,2.37-25.15,10.09l-4.07,4.08c2.81-32.39,17.6-40.93,48.2-44.1Z"/>
    <path class="cls-10" d="M369.94,369.1c9.91.16,20.07-.45,29.94-.11,24.55.84,48.05,7.2,65.44,25.39,25.15,26.31,22.42,57.47,22.55,90.93.06,15.45.73,31.4.66,46.63l.37,3.41-.78,1.29c-4.66-5.34-10.8-10.74-15.9-15.67-33.62-32.5-77.24-54.11-123.46-61.18-6.83-1.05-13.74-1.67-20.59-2.71.36-5.56,2.36-12.08,3.87-17.52,7.47-23,17.39-45.9,32.75-64.82,1.6-1.97,3.19-3.98,5.14-5.62Z"/>
    <path class="cls-1" d="M328.17,457.06c.36-5.56,2.36-12.08,3.87-17.52l.51.05c3.78.36,9.41.46,13.21.3,58.59-2.46,120.92,34.33,141.31,90.34.33.91.24.87,1,1.61l.45.09.37,3.41-.78,1.29c-4.66-5.34-10.8-10.74-15.9-15.67-33.62-32.5-77.24-54.11-123.46-61.18-6.83-1.05-13.74-1.67-20.59-2.71Z"/>
    <path class="cls-11" d="M413.68,403.91c32.2,3.61,51.39,8.39,54.5,44.87-2.61-2.03-6.85-6.71-9.88-8.19-10.15-4.95-20.08-4.5-29.91-11.19-9.29-6.32-12.56-14.78-14.71-25.5Z"/>
    <path class="cls-3" d="M488.89,535.34c4.32-5.68,7.61-10.95,14.95-12.43,9.37-1.89,21.23-2.3,29.61,2.63-2.65,8.97-10.88,26.91-17.24,33.16l-.41.41c-8.42-3.83-22.61-15.17-27.68-22.48l.78-1.29Z"/>
    <path class="cls-4" d="M288.38,765.85c.24-2.31.8-5.25,1.23-7.54,6.77-37.05,28.25-69.78,59.54-90.73,27.53-18.7,68.3-29.9,101.32-23.67,19.29,3.99,35.67,9.27,53.07,18.77,43.15,23.56,77.92,59.76,131.19,54.41,16.15-1.54,31.68-6.98,45.24-15.89,5.46-3.62,10.22-7.73,14.86-12.34,1.48-2.13,3.45-3.85,5.32-5.66-10.8,40.84-31.35,71-68.6,93.08-37.27,22.08-84.47,28.47-126.4,17.78-21.59-5.51-46.68-18.97-66.61-29.58-53.55-25.08-100.18-28.4-150.58,8.13.07-2.17.07-4.63.41-6.74Z"/>
    <path class="cls-10" d="M288.38,765.85c.24-2.31.8-5.25,1.23-7.54,6.77-37.05,28.25-69.78,59.54-90.73,27.53-18.7,68.3-29.9,101.32-23.67-8.66,5.76-17.23,11.65-25.71,17.65-4.06,2.87-11.47,7.97-15,11.22,17.23,8.79,32.73,17.21,45.37,32.61-9.25,2.8-40.25,12.15-46.64,17.01l.65.28c4.83,6.48,28.39,36.53,29.42,41.79-53.55-25.08-100.18-28.4-150.58,8.13.07-2.17.07-4.63.41-6.74Z"/>
    <path class="cls-2" d="M288.38,765.85c.1,1.42,0,1.97.72,3.17,1.35-.71,1.44-2.4,2.24-3.8,7.73-13.49,19.14-24.34,32.05-32.55,27.59-17.55,54.16-17.37,85.09-10.26l.65.28c4.83,6.48,28.39,36.53,29.42,41.79-53.55-25.08-100.18-28.4-150.58,8.13.07-2.17.07-4.63.41-6.74Z"/>
    <path class="cls-8" d="M694.84,688.85c1.48-2.13,3.45-3.85,5.32-5.66-10.8,40.84-31.35,71-68.6,93.08-37.27,22.08-84.47,28.47-126.4,17.78-21.59-5.51-46.68-18.97-66.61-29.58-1.03-5.26-24.59-35.31-29.42-41.79,7.69.49,24.46,7.28,31.87,10.59,19.95,8.9,37.46,19.72,58.28,26.78,73.4,24.88,155.43-2.02,195.69-69.3-.04-.63-.08-1.26-.12-1.89Z"/>
    <path class="cls-4" d="M619.82,498.02c2.63-1.49,5.12-2.7,7.84-4.02,5.9,6.76,11.74,13.58,17.51,20.46,7.03,8.12,14.84,15.58,21.86,23.67,25.52,29.41,38.95,57.02,37.09,96.42l-1.27,8.37-1.05,4.03c-5.65,15.9-11.87,23.83-24.83,34.5-2.99,2.05-6.02,4.05-9.07,6-6.75,3.59-11.69,6.01-19.02,8.52l-9.01,2.35c-7.51,1.04-11.8,1.43-19.52,1.26l-8.7-.73c-8.79-2.04-13.68-3.2-21.95-6.84-.9-13.28-.08-35.22-.1-49.28l-.14-100.72v-23.7c5.67-5.57,14.77-11.44,21.62-15.4,3.2-2,5.35-3.2,8.72-4.89Z"/>
    <path class="cls-10" d="M631.51,558.08c-.82-5.54-1.71-7.18,1.46-12.59,1.91-3.27,5.19-5.67,8.95-6.4,3.76-.72,7.65.18,10.7,2.48,4.55,3.41,5.2,6.93,6.04,11.98-3.15,8.7-6.07,7.54-10.12,14.9-.29.52-.05,3.84,0,4.7-.26,9.78,2.15,32.45-1.83,40.14-2.45,4.72-6.74,8.58-10.49,12.26-5.33,5.23-11.48,10.44-16,16.37-.48,15.67.09,31.55-.04,47.24-.03,3.43.01,6.99.18,10.42l-8.7-.73c.45-19.43-.63-40.4.35-59.6,6.16-8.67,24.14-23,28.32-30.36.6-11.9.16-26.79-.02-38.82-.61-4.4-5.49-8.18-8.8-11.99Z"/>
    <path class="cls-4" d="M639.49,549.55c.86-1.48,2.36-2.48,4.06-2.72,1.7-.24,3.41.3,4.66,1.48,2.13,2.03,2.35,5.35.49,7.63-1.86,2.28-5.16,2.75-7.57,1.08-2.42-1.68-3.14-4.93-1.65-7.47Z"/>
    <path class="cls-8" d="M639.49,549.55c.86-1.48,2.36-2.48,4.06-2.72,1.7-.24,3.41.3,4.66,1.48-1.18.78-7.17,1.32-8.72,1.24Z"/>
    <path class="cls-10" d="M660.6,596.09c-3.22-8.11.61-17.88,9.51-19.78,3.38-.72,6.9-.02,9.74,1.92,4.67,3.2,5.46,6.79,6.45,11.79,3.4,6.34-2.76,12.77-6.73,17.39-.17,3.04-.41,6.07-.69,9.1-.41,12.26-24.13,27.51-30.39,39.13-.29,4.93-.39,35.73.39,40.33l-9.01,2.35c.15-17.33-.2-34.83.16-52.11,6.17-9.46,22.36-21.78,28.93-31.07.14-2.62.17-5.54.25-8.19-.34-4.44-5.03-6.99-8.62-10.87Z"/>
    <path class="cls-8" d="M686.29,590.02c3.4,6.34-2.76,12.77-6.73,17.39-.17,3.04-.41,6.07-.69,9.1-.41,12.26-24.13,27.51-30.39,39.13l.05-6.54c7.3-9.74,23.54-22.72,28.89-31.8.27-4.4-.24-9.68.53-13.91,4.99-4.41,6.98-6.79,8.35-13.36Z"/>
    <path class="cls-4" d="M670.78,584.77c1.86-.79,4.01-.5,5.59.76,1.59,1.26,2.36,3.27,2.03,5.27-.34,1.99-1.74,3.65-3.65,4.3-2.82.98-5.9-.46-6.97-3.24-1.07-2.78.26-5.91,3.01-7.08Z"/>
    <path class="cls-10" d="M611.09,502.91c3.2-2,5.35-3.2,8.72-4.89.02,8.21.23,17.34.02,25.51-.5,14.64-.24,36.89.35,51.68,5.36,3.77,8,5.95,9.54,12.98.12.56.02.3.25.73-1.21,5-2.84,9.15-7.62,11.97-2.91,1.73-6.4,2.23-9.69,1.37-6.41-1.73-9.02-6.85-10.82-12.66,1.1-7.3,4.36-9.82,9.76-14.14l-.1-48.48c-.02-8.09-.01-15.98-.4-24.07Z"/>
    <path class="cls-4" d="M610.85,586.91c.9-1.85,2.73-3.06,4.78-3.18,2.05-.11,4,.88,5.11,2.61,1.48,2.3,1.09,5.33-.91,7.2s-5.05,2.05-7.25.42c-2.2-1.63-2.93-4.6-1.73-7.05Z"/>
    <path class="cls-8" d="M610.85,586.91c.9-1.85,2.73-3.06,4.78-3.18,2.05-.11,4,.88,5.11,2.61-1.64.64-5.72-1.29-8.74.38-.35.2-.56.16-1.14.19Z"/>
    <path class="cls-10" d="M667.9,687.46c.76-12.8-1.04-27.24,1.26-39.52,2.96-15.74,23.64-13.52,34.96-13.39l-1.27,8.37-1.05,4.03c-5.65,15.9-11.87,23.83-24.83,34.5-2.99,2.05-6.02,4.05-9.07,6Z"/>
    <path class="cls-4" d="M683.78,647.1c5.99-.45,12.02-.68,18.01-.15-5.65,15.9-11.87,23.83-24.83,34.5-.04-9.17-.26-18.33-.2-27.52,2.48-3.17,3.65-4.66,7.01-6.84Z"/>
    <path class="cls-8" d="M683.57,643.09c6.09-.27,13.11-.14,19.28-.16l-1.05,4.03c-5.99-.53-12.02-.3-18.01.15-3.36,2.17-4.53,3.67-7.01,6.84.11-5.95,1.68-7.89,6.8-10.85Z"/>
    <path class="cls-8" d="M589.47,518.31c5.68-5.57,14.77-11.44,21.62-15.4.39,8.1.39,15.98.4,24.07-7.42,3.35-15.66,9.87-22.02,15.02v-23.7Z"/>
    <path class="cls-8" d="M619.82,498.02c2.63-1.49,5.12-2.7,7.84-4.02,5.9,6.76,11.74,13.58,17.51,20.46-9.62,2.45-16.48,4.26-25.33,9.08.22-8.17,0-17.3-.02-25.51Z"/>
    <path class="cls-8" d="M629.97,588.92c3.32,4.24-1.3,12.26-5.2,14.98-3.36,2.3-7.5,3.18-11.51,2.42-7.83-1.44-13.42-8.79-11.42-16.72,1.8,5.81,4.41,10.92,10.82,12.66,3.29.86,6.78.36,9.69-1.37,4.78-2.82,6.41-6.97,7.62-11.97Z"/>
    <path class="cls-8" d="M658.66,553.55c1.05,2.73.33,3.23-.53,6.08-.63,2.08-8.47,12.69-9.58,13.52-.05-.86-.29-4.18,0-4.7,4.05-7.36,6.97-6.2,10.12-14.9Z"/>
    <path class="cls-8" d="M660.6,596.09c3.59,3.88,8.28,6.43,8.62,10.87-3.35-.49-8.76-7.67-8.62-10.87Z"/>
    <path class="cls-8" d="M631.51,558.08c3.3,3.81,8.18,7.59,8.8,11.99-3.06-1.81-8.65-8.46-8.8-11.99Z"/>
    <path class="cls-10" d="M456.41,530.18c18.06,17.35,34.18,40.6,60.87,39.98,22.98-.53,39.16-21.26,54.41-36.94.08,9.7.33,19.97.03,29.62-.09,12.54.66,116.58-.88,119.62-1.09.01-.67.11-1.28-.08-19.8-11.11-37.65-24.66-57.79-35.52-15.85-8.54-27.65-11.79-44-17.66-.99-1.32-1.84-2.69-2.74-4.08-15.32-26.6-19.52-43.09-15.07-73.59,1.71-7.55,3.29-14.2,6.45-21.35Z"/>
    <path class="cls-7" d="M456.41,530.18c18.06,17.35,34.18,40.6,60.87,39.98,22.98-.53,39.16-21.26,54.41-36.94.08,9.7.33,19.97.03,29.62l-.57-2.17c-1.65.59-4.62,3.99-6.03,5.35-14.58,14.11-22.08,28.39-43.82,30.54-28.35,2.82-40.45-17.45-59.1-34.4-3.99-3.62-8.17-7.07-12.25-10.63,1.71-7.55,3.29-14.2,6.45-21.35Z"/>
    <path class="cls-7" d="M465.03,625.12c7.56-2.91,28.14,4.31,35.43,7.64,21.52,9.82,41.42,23.38,59.58,38.46,3.93,3.26,8.85,5.97,9.53,11.16-19.8-11.11-37.65-24.66-57.79-35.52-15.85-8.54-27.65-11.79-44-17.66-.99-1.32-1.84-2.69-2.74-4.08Z"/>
    <path class="cls-9" d="M611.49,526.98c-.02-8.09-.01-15.98-.4-24.07,3.2-2,5.35-3.2,8.72-4.89.02,8.21.23,17.34.02,25.51l-8.34,3.45Z"/>
  </g>
</svg>