<?xml version="1.0" encoding="UTF-8"?>
<svg id="_图层_1" xmlns="http://www.w3.org/2000/svg" xmlns:xlink="http://www.w3.org/1999/xlink" version="1.1" viewBox="0 0 1024 1024">
  <!-- Generator: Adobe Illustrator 30.1.0, SVG Export Plug-In . SVG Version: 2.1.1 Build 136)  -->
  <defs>
    <style>
      .st0 {
        fill: url(#_未命名的渐变_2);
      }

      .st1 {
        fill: url(#_未命名的渐变_3);
      }

      .st2 {
        fill: #3a5066;
      }

      .st3 {
        fill: #f3823e;
      }

      .st4 {
        fill: url(#_未命名的渐变);
      }

      .st5 {
        fill: #ebdeb7;
      }

      .st6 {
        fill: #db5833;
      }

      .st7 {
        fill: #b54630;
      }

      .st8 {
        fill: #f8f5d7;
      }

      .st9 {
        fill: #24374a;
      }
    </style>
    <linearGradient id="_未命名的渐变" data-name="未命名的渐变" x1="2146.3" y1="1101" x2="2107.6" y2="1028.4" gradientTransform="translate(-447 -54) scale(.5)" gradientUnits="userSpaceOnUse">
      <stop offset="0" stop-color="#e1ae89"/>
      <stop offset="1" stop-color="#ecdab6"/>
    </linearGradient>
    <linearGradient id="_未命名的渐变_2" data-name="未命名的渐变 2" x1="1702.8" y1="1104.4" x2="1745" y2="1029.4" gradientTransform="translate(-447 -54) scale(.5)" gradientUnits="userSpaceOnUse">
      <stop offset="0" stop-color="#e4b592"/>
      <stop offset="1" stop-color="#ebddb9"/>
    </linearGradient>
    <linearGradient id="_未命名的渐变_3" data-name="未命名的渐变 3" x1="1623.6" y1="1660.9" x2="1601.7" y2="1548.4" gradientTransform="translate(-447 -54) scale(.5)" gradientUnits="userSpaceOnUse">
      <stop offset="0" stop-color="#e2ab89"/>
      <stop offset="1" stop-color="#ebdebb"/>
    </linearGradient>
  </defs>
  <path class="st9" d="M677.1,202.9c.7.1.7.2,1.4.6,8.2,15.9,15.4,43.5,17.3,61.4.6,5.4.1,16.5.3,22.5-.3,5.7.6,12.2,0,17.8-1.6,14.9-4.5,30-8.1,44.5-1.4,5.8-4,10.8-4.9,16.8,7.3,8.6,12.9,19.8,18.2,29.7,8.7,16.1,13.5,34.1,17.8,51.7,2,8.1,1.9,17,5,24.7-17.2.2-65.8,4.6-79,15.3,4,6.9,18.2,19.9,24.2,26.8,6.2,7.1,13,13.1,19.2,21.1,15.3,20.1,26,43.4,31.1,68.1,2.1,10,2.2,13.9,2.5,23.7,1.2,36.2-3.3,65.8-20,97.9-35.3,67.9-109.7,97.1-183.4,88.8-58.9-6.5-102.4-56.7-162.8-51.3-25.8,2.3-50.8,17.6-70.3,34.1-5.7,4.8-12.2,9.5-17.1,15.1-.4-10.9-1.3-39.3,1.8-49.3.4-15.3,12.8-45.6,20.3-58.5,25.1-43.5,70.4-72.2,119.9-78.2,10.8-1.3,21.1-.3,31.9-1.1-5-11.2-10.6-24.6-11.9-36.8-.6-5.7,0-12.4-.2-18-.9-17.7,3.4-33.5,9.4-49.8.7-3.8-6.5-7.8-8.8-9.5-26.4-19.1-59.8-30.6-91.9-35-11.1-1.5-21.4-1.6-32.1-3.1,4.9-43.6,18.9-70.6,41.4-106.7-2.7-8.1-5.2-16.2-7.6-24.4-5.8-20.3-6-48.2-5.2-69.4.7-21,8.5-50.7,18.6-68.9,33.4,10.3,60,27.1,82.4,54.2,3.6,4.4,7,8.9,10.3,13.6,2.6,3.8,5.1,8,8.4,11.2,21.7-7.8,39.9-9.2,62.6-8.6,13.5.4,24.1-.1,37.6,3.4,6.8,1.8,14.3,3.7,21.1,5,1.7.3,9.8-12.6,11.1-14.2,6.3-8.4,12.6-16.3,20-23.6,20.6-20.2,42.6-31.9,69.5-41.6h0Z"/>
  <path class="st3" d="M366.8,226.5c37.8,15.1,60.6,42.9,79.9,77.4,51.5-19.1,87-17.6,138.4.3,16-29.5,32.7-49.9,61.8-68,5-3.1,12.6-7.5,18-9.6-5.7,7.9-11.8,15.6-17.4,23.5-14.7,20.8-25.4,41.7-35.2,65.2,4.4,4.4,8.9,8.1,13.7,12,8.6-19,15.8-36.6,27.4-54.4,6.4-9.7,13.4-18.5,20.3-27.8,9.2,24.9,6.7,71.6-1.2,96.9-2.6,8.4-8.4,19.7-10.4,26.9,1.9,1.5,3.3,3.3,4.9,5.2,15.6,18.9,26.4,42.3,32.9,65.8,1.7,5.5,3,11.2,4,16.9-41.2,4.2-82.3,16.2-116.4,40.5-6.7,4.8-13.1,10-19.2,15.5-6.7,6-16.9,16.4-23.5,23.2-.3,0-.6,0-.9,0l-.7-.6c-2.6-3.7-6.2-7-9.6-9.9-2.7,9-10.9,26.9-17.2,33.2l-.4.4c-8.4-3.8-22.6-15.2-27.7-22.5-4.7-5.3-10.8-10.7-15.9-15.7-33.6-32.5-77.2-54.1-123.5-61.2-6.8-1-13.7-1.7-20.6-2.7.4-5.6,2.4-12.1,3.9-17.5,7.5-23,17.4-45.9,32.8-64.8,1.6-2,3.2-4,5.1-5.6-18.7-43.8-22.1-76.8-12.3-123.7,21.1,23.9,36.7,52.8,48,82.5,4.5-3.7,9.8-7.8,14-11.8-14.7-37.9-29-57.6-52.8-89.5h0Z"/>
  <path class="st8" d="M662.1,369c1.9,1.5,3.3,3.3,4.9,5.2,15.6,18.9,26.4,42.3,32.9,65.8,1.7,5.5,3,11.2,4,16.9-41.2,4.2-82.3,16.2-116.4,40.5-6.7,4.8-13.1,10-19.2,15.5-6.7,6-16.9,16.4-23.5,23.2-.3,0-.6,0-.9,0l-.7-.6c-.2-3.8-.2-7.8.4-11.6,0-13,0-25.9,0-38.9-.3-28.8-1.5-60.8,17.4-84.6,18.9-24.1,49-30.8,78.1-31.3,5.9-.1,17.9.8,23.1,0h0Z"/>
  <path class="st4" d="M699.9,440c1.7,5.5,3,11.2,4,16.9-41.2,4.2-82.3,16.2-116.4,40.5-6.7,4.8-13.1,10-19.2,15.5-6.7,6-16.9,16.4-23.5,23.2-.3,0-.6,0-.9,0l-.7-.6c-.2-3.8-.2-7.8.4-11.6l.2,7.8c19-47.4,67.5-85.2,118.5-90.5,8.2-.8,16.4-1.2,24.7-1.1,3,0,10.5.5,13,0h0Z"/>
  <path class="st9" d="M611.5,404.8c2-.2,4.5-.3,6.5-.5-2.7,15.1-10.2,26.2-25.5,30.4-10.7,2.9-16.5,2.4-25.2,10.1l-4.1,4.1c2.8-32.4,17.6-40.9,48.2-44.1h0Z"/>
  <path class="st8" d="M369.9,369.1c9.9.2,20.1-.5,29.9-.1,24.5.8,48,7.2,65.4,25.4,25.1,26.3,22.4,57.5,22.5,90.9,0,15.5.7,31.4.7,46.6l.4,3.4-.8,1.3c-4.7-5.3-10.8-10.7-15.9-15.7-33.6-32.5-77.2-54.1-123.5-61.2-6.8-1-13.7-1.7-20.6-2.7.4-5.6,2.4-12.1,3.9-17.5,7.5-23,17.4-45.9,32.8-64.8,1.6-2,3.2-4,5.1-5.6h0Z"/>
  <path class="st0" d="M328.2,457.1c.4-5.6,2.4-12.1,3.9-17.5h.5c3.8.4,9.4.5,13.2.3,58.6-2.5,120.9,34.3,141.3,90.3.3.9.2.9,1,1.6h.5c0,0,.4,3.5.4,3.5l-.8,1.3c-4.7-5.3-10.8-10.7-15.9-15.7-33.6-32.5-77.2-54.1-123.5-61.2-6.8-1-13.7-1.7-20.6-2.7h0Z"/>
  <path class="st9" d="M413.7,403.9c32.2,3.6,51.4,8.4,54.5,44.9-2.6-2-6.9-6.7-9.9-8.2-10.1-5-20.1-4.5-29.9-11.2-9.3-6.3-12.6-14.8-14.7-25.5h0Z"/>
  <path class="st2" d="M488.9,535.3c4.3-5.7,7.6-11,15-12.4,9.4-1.9,21.2-2.3,29.6,2.6-2.7,9-10.9,26.9-17.2,33.2l-.4.4c-8.4-3.8-22.6-15.2-27.7-22.5l.8-1.3h0Z"/>
  <path class="st3" d="M288.4,765.8c.2-2.3.8-5.2,1.2-7.5,6.8-37,28.2-69.8,59.5-90.7,27.5-18.7,68.3-29.9,101.3-23.7,19.3,4,35.7,9.3,53.1,18.8,43.2,23.6,77.9,59.8,131.2,54.4,16.2-1.5,31.7-7,45.2-15.9,5.5-3.6,10.2-7.7,14.9-12.3,1.5-2.1,3.5-3.8,5.3-5.7-10.8,40.8-31.3,71-68.6,93.1-37.3,22.1-84.5,28.5-126.4,17.8-21.6-5.5-46.7-19-66.6-29.6-53.5-25.1-100.2-28.4-150.6,8.1,0-2.2,0-4.6.4-6.7h0Z"/>
  <path class="st8" d="M288.4,765.8c.2-2.3.8-5.2,1.2-7.5,6.8-37,28.2-69.8,59.5-90.7,27.5-18.7,68.3-29.9,101.3-23.7-8.7,5.8-17.2,11.7-25.7,17.7-4.1,2.9-11.5,8-15,11.2,17.2,8.8,32.7,17.2,45.4,32.6-9.2,2.8-40.2,12.2-46.6,17l.6.3c4.8,6.5,28.4,36.5,29.4,41.8-53.5-25.1-100.2-28.4-150.6,8.1,0-2.2,0-4.6.4-6.7h0Z"/>
  <path class="st1" d="M288.4,765.8c.1,1.4,0,2,.7,3.2,1.4-.7,1.4-2.4,2.2-3.8,7.7-13.5,19.1-24.3,32-32.5,27.6-17.5,54.2-17.4,85.1-10.3l.6.3c4.8,6.5,28.4,36.5,29.4,41.8-53.5-25.1-100.2-28.4-150.6,8.1,0-2.2,0-4.6.4-6.7h0Z"/>
  <path class="st6" d="M694.8,688.8c1.5-2.1,3.5-3.8,5.3-5.7-10.8,40.8-31.3,71-68.6,93.1-37.3,22.1-84.5,28.5-126.4,17.8-21.6-5.5-46.7-19-66.6-29.6-1-5.3-24.6-35.3-29.4-41.8,7.7.5,24.5,7.3,31.9,10.6,20,8.9,37.5,19.7,58.3,26.8,73.4,24.9,155.4-2,195.7-69.3,0-.6,0-1.3-.1-1.9h0Z"/>
  <path class="st3" d="M619.8,498c2.6-1.5,5.1-2.7,7.8-4,5.9,6.8,11.7,13.6,17.5,20.5,7,8.1,14.8,15.6,21.9,23.7,25.5,29.4,39,57,37.1,96.4l-1.3,8.4-1,4c-5.7,15.9-11.9,23.8-24.8,34.5-3,2-6,4-9.1,6-6.8,3.6-11.7,6-19,8.5l-9,2.3c-7.5,1-11.8,1.4-19.5,1.3l-8.7-.7c-8.8-2-13.7-3.2-22-6.8-.9-13.3,0-35.2,0-49.3v-100.7c-.1,0-.1-23.7-.1-23.7,5.7-5.6,14.8-11.4,21.6-15.4,3.2-2,5.3-3.2,8.7-4.9h0Z"/>
  <path class="st8" d="M631.5,558.1c-.8-5.5-1.7-7.2,1.5-12.6,1.9-3.3,5.2-5.7,9-6.4,3.8-.7,7.7.2,10.7,2.5,4.5,3.4,5.2,6.9,6,12-3.2,8.7-6.1,7.5-10.1,14.9-.3.5,0,3.8,0,4.7-.3,9.8,2.2,32.5-1.8,40.1-2.5,4.7-6.7,8.6-10.5,12.3-5.3,5.2-11.5,10.4-16,16.4-.5,15.7,0,31.5,0,47.2,0,3.4,0,7,.2,10.4l-8.7-.7c.5-19.4-.6-40.4.3-59.6,6.2-8.7,24.1-23,28.3-30.4.6-11.9.2-26.8,0-38.8-.6-4.4-5.5-8.2-8.8-12Z"/>
  <path class="st3" d="M639.5,549.5c.9-1.5,2.4-2.5,4.1-2.7s3.4.3,4.7,1.5c2.1,2,2.3,5.3.5,7.6s-5.2,2.8-7.6,1.1c-2.4-1.7-3.1-4.9-1.7-7.5h0Z"/>
  <path class="st6" d="M639.5,549.5c.9-1.5,2.4-2.5,4.1-2.7s3.4.3,4.7,1.5c-1.2.8-7.2,1.3-8.7,1.2Z"/>
  <path class="st8" d="M660.6,596.1c-3.2-8.1.6-17.9,9.5-19.8,3.4-.7,6.9,0,9.7,1.9,4.7,3.2,5.5,6.8,6.5,11.8,3.4,6.3-2.8,12.8-6.7,17.4-.2,3-.4,6.1-.7,9.1-.4,12.3-24.1,27.5-30.4,39.1-.3,4.9-.4,35.7.4,40.3l-9,2.3c.2-17.3-.2-34.8.2-52.1,6.2-9.5,22.4-21.8,28.9-31.1.1-2.6.2-5.5.2-8.2-.3-4.4-5-7-8.6-10.9h0Z"/>
  <path class="st6" d="M686.3,590c3.4,6.3-2.8,12.8-6.7,17.4-.2,3-.4,6.1-.7,9.1-.4,12.3-24.1,27.5-30.4,39.1v-6.5c7.3-9.7,23.6-22.7,28.9-31.8.3-4.4-.2-9.7.5-13.9,5-4.4,7-6.8,8.3-13.4h0Z"/>
  <path class="st3" d="M670.8,584.8c1.9-.8,4-.5,5.6.8,1.6,1.3,2.4,3.3,2,5.3-.3,2-1.7,3.7-3.7,4.3-2.8,1-5.9-.5-7-3.2-1.1-2.8.3-5.9,3-7.1h0Z"/>
  <path class="st8" d="M611.1,502.9c3.2-2,5.3-3.2,8.7-4.9,0,8.2.2,17.3,0,25.5-.5,14.6-.2,36.9.3,51.7,5.4,3.8,8,6,9.5,13,.1.6,0,.3.2.7-1.2,5-2.8,9.2-7.6,12-2.9,1.7-6.4,2.2-9.7,1.4-6.4-1.7-9-6.8-10.8-12.7,1.1-7.3,4.4-9.8,9.8-14.1v-48.5c-.1-8.1-.1-16-.5-24.1h0Z"/>
  <path class="st3" d="M610.8,586.9c.9-1.8,2.7-3.1,4.8-3.2,2-.1,4,.9,5.1,2.6,1.5,2.3,1.1,5.3-.9,7.2s-5,2-7.2.4-2.9-4.6-1.7-7h0Z"/>
  <path class="st6" d="M610.8,586.9c.9-1.8,2.7-3.1,4.8-3.2,2-.1,4,.9,5.1,2.6-1.6.6-5.7-1.3-8.7.4-.3.2-.6.2-1.1.2h0Z"/>
  <path class="st8" d="M667.9,687.5c.8-12.8-1-27.2,1.3-39.5,3-15.7,23.6-13.5,35-13.4l-1.3,8.4-1,4c-5.7,15.9-11.9,23.8-24.8,34.5-3,2-6,4-9.1,6h0Z"/>
  <path class="st3" d="M683.8,647.1c6-.5,12-.7,18-.2-5.7,15.9-11.9,23.8-24.8,34.5,0-9.2-.3-18.3-.2-27.5,2.5-3.2,3.7-4.7,7-6.8h0Z"/>
  <path class="st6" d="M683.6,643.1c6.1-.3,13.1-.1,19.3-.2l-1,4c-6-.5-12-.3-18,.2-3.4,2.2-4.5,3.7-7,6.8.1-6,1.7-7.9,6.8-10.8h0Z"/>
  <path class="st6" d="M589.5,518.3c5.7-5.6,14.8-11.4,21.6-15.4.4,8.1.4,16,.4,24.1-7.4,3.3-15.7,9.9-22,15v-23.7h0Z"/>
  <path class="st6" d="M619.8,498c2.6-1.5,5.1-2.7,7.8-4,5.9,6.8,11.7,13.6,17.5,20.5-9.6,2.5-16.5,4.3-25.3,9.1.2-8.2,0-17.3,0-25.5h0Z"/>
  <path class="st6" d="M630,588.9c3.3,4.2-1.3,12.3-5.2,15-3.4,2.3-7.5,3.2-11.5,2.4-7.8-1.4-13.4-8.8-11.4-16.7,1.8,5.8,4.4,10.9,10.8,12.7,3.3.9,6.8.4,9.7-1.4,4.8-2.8,6.4-7,7.6-12Z"/>
  <path class="st6" d="M658.7,553.5c1,2.7.3,3.2-.5,6.1-.6,2.1-8.5,12.7-9.6,13.5,0-.9-.3-4.2,0-4.7,4-7.4,7-6.2,10.1-14.9h0Z"/>
  <path class="st6" d="M660.6,596.1c3.6,3.9,8.3,6.4,8.6,10.9-3.3-.5-8.8-7.7-8.6-10.9Z"/>
  <path class="st6" d="M631.5,558.1c3.3,3.8,8.2,7.6,8.8,12-3.1-1.8-8.7-8.5-8.8-12Z"/>
  <path class="st8" d="M456.4,530.2c18.1,17.3,34.2,40.6,60.9,40,23-.5,39.2-21.3,54.4-36.9,0,9.7.3,20,0,29.6,0,12.5.7,116.6-.9,119.6-1.1,0-.7.1-1.3,0-19.8-11.1-37.7-24.7-57.8-35.5-15.9-8.5-27.6-11.8-44-17.7-1-1.3-1.8-2.7-2.7-4.1-15.3-26.6-19.5-43.1-15.1-73.6,1.7-7.5,3.3-14.2,6.5-21.3h0Z"/>
  <path class="st5" d="M456.4,530.2c18.1,17.3,34.2,40.6,60.9,40,23-.5,39.2-21.3,54.4-36.9,0,9.7.3,20,0,29.6l-.6-2.2c-1.7.6-4.6,4-6,5.3-14.6,14.1-22.1,28.4-43.8,30.5-28.4,2.8-40.5-17.5-59.1-34.4-4-3.6-8.2-7.1-12.2-10.6,1.7-7.5,3.3-14.2,6.5-21.3h0Z"/>
  <path class="st5" d="M465,625.1c7.6-2.9,28.1,4.3,35.4,7.6,21.5,9.8,41.4,23.4,59.6,38.5,3.9,3.3,8.8,6,9.5,11.2-19.8-11.1-37.7-24.7-57.8-35.5-15.9-8.5-27.6-11.8-44-17.7-1-1.3-1.8-2.7-2.7-4.1h0Z"/>
  <path class="st7" d="M611.5,527c0-8.1,0-16-.4-24.1,3.2-2,5.3-3.2,8.7-4.9,0,8.2.2,17.3,0,25.5l-8.3,3.5h0Z"/>
</svg>