<svg
  xmlns="http://www.w3.org/2000/svg"
  width="29"
  height="63"
  viewBox="0 0 29 63"
  fill="none"
>
  <g filter="url(#filter0_d_4665_35356)">
    <g filter="url(#filter1_i_4665_35356)">
      <path
        d="M11.4922 5.7205C11.4922 5.2902 11.7675 4.90814 12.1756 4.77193L16.1689 3.43934C16.8165 3.22323 17.4855 3.70522 17.4855 4.38792V12H11.4922V5.7205Z"
        fill="currentColor"
      />
    </g>
    <rect x="4.5" y="32.5" width="20" height="75.5" fill="#F3F3F3" />
    <rect
      x="4.5"
      y="32.5"
      width="20"
      height="75.5"
      fill="url(#paint0_linear_4665_35356)"
      fill-opacity="0.1"
    />
    <path
      d="M9.24747 11.5H19.7525V13.3774C19.7525 19.0605 20.9635 24.6784 23.3049 29.8568L24.5 32.5H4.5L5.69508 29.8568C8.03645 24.6784 9.24747 19.0605 9.24747 13.3774V11.5Z"
      fill="#FAFAFA"
    />
    <path
      d="M9.24747 11.5H19.7525V13.3774C19.7525 19.0605 20.9635 24.6784 23.3049 29.8568L24.5 32.5H4.5L5.69508 29.8568C8.03645 24.6784 9.24747 19.0605 9.24747 13.3774V11.5Z"
      fill="url(#paint1_linear_4665_35356)"
      fill-opacity="0.1"
    />
    <rect x="4.5" y="37" width="20" height="8" fill="currentColor" />
    <rect
      x="4.5"
      y="37"
      width="20"
      height="8"
      fill="url(#paint2_linear_4665_35356)"
      fill-opacity="0.2"
    />
  </g>
  <defs>
    <filter
      id="filter0_d_4665_35356"
      x="0.5"
      y="0"
      width="28"
      height="116"
      filterUnits="userSpaceOnUse"
      color-interpolation-filters="sRGB"
    >
      <feFlood flood-opacity="0" result="BackgroundImageFix" />
      <feColorMatrix
        in="SourceAlpha"
        type="matrix"
        values="0 0 0 0 0 0 0 0 0 0 0 0 0 0 0 0 0 0 127 0"
        result="hardAlpha"
      />
      <feOffset dy="4" />
      <feGaussianBlur stdDeviation="2" />
      <feComposite in2="hardAlpha" operator="out" />
      <feColorMatrix
        type="matrix"
        values="0 0 0 0 0 0 0 0 0 0 0 0 0 0 0 0 0 0 0.25 0"
      />
      <feBlend
        mode="normal"
        in2="BackgroundImageFix"
        result="effect1_dropShadow_4665_35356"
      />
      <feBlend
        mode="normal"
        in="SourceGraphic"
        in2="effect1_dropShadow_4665_35356"
        result="shape"
      />
    </filter>
    <filter
      id="filter1_i_4665_35356"
      x="11.4922"
      y="3.39331"
      width="5.99335"
      height="8.60669"
      filterUnits="userSpaceOnUse"
      color-interpolation-filters="sRGB"
    >
      <feFlood flood-opacity="0" result="BackgroundImageFix" />
      <feBlend
        mode="normal"
        in="SourceGraphic"
        in2="BackgroundImageFix"
        result="shape"
      />
      <feColorMatrix
        in="SourceAlpha"
        type="matrix"
        values="0 0 0 0 0 0 0 0 0 0 0 0 0 0 0 0 0 0 127 0"
        result="hardAlpha"
      />
      <feOffset dy="-0.0468842" />
      <feGaussianBlur stdDeviation="0.781404" />
      <feComposite in2="hardAlpha" operator="arithmetic" k2="-1" k3="1" />
      <feColorMatrix
        type="matrix"
        values="0 0 0 0 0 0 0 0 0 0 0 0 0 0 0 0 0 0 0.12 0"
      />
      <feBlend mode="normal" in2="shape" result="effect1_innerShadow_4665_35356" />
    </filter>
    <linearGradient
      id="paint0_linear_4665_35356"
      x1="14.5"
      y1="32.5"
      x2="14.5"
      y2="108"
      gradientUnits="userSpaceOnUse"
    >
      <stop stop-color="white" />
      <stop offset="1" stop-opacity="0" />
    </linearGradient>
    <linearGradient
      id="paint1_linear_4665_35356"
      x1="14.5"
      y1="11.5"
      x2="14.5"
      y2="32.5"
      gradientUnits="userSpaceOnUse"
    >
      <stop stop-opacity="0" />
      <stop offset="1" />
    </linearGradient>
    <linearGradient
      id="paint2_linear_4665_35356"
      x1="14.5"
      y1="37"
      x2="14.5"
      y2="45"
      gradientUnits="userSpaceOnUse"
    >
      <stop stop-color="white" />
      <stop offset="1" stop-opacity="0" />
    </linearGradient>
  </defs>
</svg>